<svg width="1363" height="746" viewBox="0 0 1363 746" fill="none" xmlns="http://www.w3.org/2000/svg">
<path d="M871.456 657.512C871.06 657.512 870.844 657.26 870.844 656.864V628.856C870.844 628.46 871.06 628.208 871.456 628.208H882.292C891.76 628.208 897.16 633.356 897.16 642.86C897.16 652.292 891.76 657.512 882.292 657.512H871.456ZM881.572 650.636C886.756 650.636 889.564 648.08 889.564 642.86C889.564 637.64 886.756 635.084 881.572 635.084H878.188V650.636H881.572ZM911.286 657.908C904.518 657.908 900.162 653.408 900.162 646.892C900.162 640.412 904.518 635.912 911.286 635.912C918.342 635.912 922.158 640.916 921.762 648.116C921.726 648.512 921.51 648.728 921.078 648.728H907.434C907.974 650.816 909.306 651.968 911.322 651.968C912.87 651.968 914.058 651.5 914.814 650.456C915.066 650.168 915.354 650.096 915.678 650.168L920.79 651.896C921.042 652.004 921.186 652.148 921.186 652.364C921.186 652.472 921.15 652.58 921.078 652.724C919.134 656.36 915.318 657.908 911.286 657.908ZM914.706 644.804C914.31 642.716 913.086 641.528 911.178 641.528C909.198 641.528 907.866 642.644 907.434 644.804H914.706ZM933.139 657.908C928.351 657.908 925.003 655.964 923.635 652.364C923.599 652.292 923.599 652.184 923.599 652.112C923.599 651.896 923.779 651.716 924.067 651.644L928.855 650.636C928.927 650.636 928.999 650.6 929.071 650.6C929.323 650.6 929.503 650.744 929.683 650.996C930.367 652.148 931.555 652.688 932.887 652.688C934.147 652.688 934.939 652.328 934.939 651.572C934.939 650.96 934.471 650.528 932.707 650.06L931.915 649.844C926.407 648.404 924.463 645.704 924.463 642.464C924.463 638.612 928.027 635.912 933.175 635.912C937.675 635.912 940.591 637.604 941.923 641.24C941.959 641.348 941.995 641.42 941.995 641.492C941.995 641.744 941.815 641.924 941.491 641.996L936.847 643.076H936.703C936.415 643.076 936.235 642.932 936.091 642.644C935.479 641.672 934.723 641.132 933.463 641.132C932.491 641.132 931.771 641.456 931.771 642.212C931.771 642.932 932.527 643.436 934.147 643.832L934.903 644.012C940.483 645.416 942.283 647.576 942.283 651.212C942.283 655.28 938.467 657.908 933.139 657.908ZM948.963 633.5C946.731 633.5 945.003 632.024 945.003 629.792C945.003 627.56 946.731 626.048 948.963 626.048C951.195 626.048 952.923 627.56 952.923 629.792C952.923 632.024 951.195 633.5 948.963 633.5ZM945.363 636.92C945.363 636.56 945.615 636.308 946.011 636.308H951.915C952.311 636.308 952.563 636.56 952.563 636.92V656.864C952.563 657.26 952.311 657.512 951.915 657.512H946.011C945.615 657.512 945.363 657.26 945.363 656.864V636.92ZM967.003 666.62C962.035 666.62 958.147 664.316 956.671 660.428C956.635 660.32 956.599 660.212 956.599 660.14C956.599 659.924 956.779 659.744 957.067 659.672L961.675 658.232C961.747 658.196 961.819 658.196 961.891 658.196C962.107 658.196 962.323 658.304 962.503 658.556C963.331 659.744 964.627 660.644 966.823 660.644C969.559 660.644 971.503 659.276 971.503 656.504V655.532C970.099 656.828 968.155 657.548 965.959 657.548C960.055 657.548 956.095 653.084 956.095 646.748C956.095 640.34 960.055 635.912 965.959 635.912C968.587 635.912 970.783 636.956 972.331 638.792L972.403 636.92C972.403 636.524 972.691 636.308 973.051 636.308H978.055C978.451 636.308 978.703 636.56 978.703 636.92V655.424C978.703 663.236 973.627 666.62 967.003 666.62ZM963.367 646.892C963.367 649.664 965.167 651.608 967.723 651.608C970.279 651.608 972.079 649.664 972.079 646.892C972.079 644.12 970.279 642.212 967.723 642.212C965.167 642.212 963.367 644.12 963.367 646.892ZM983.944 657.512C983.548 657.512 983.296 657.26 983.296 656.864V636.92C983.296 636.56 983.548 636.308 983.944 636.308H988.948C989.344 636.308 989.632 636.524 989.632 636.92L989.704 638.792C991.252 636.884 993.592 635.912 996.4 635.912C1001.44 635.912 1004.28 638.828 1004.28 643.688V656.864C1004.28 657.26 1004.03 657.512 1003.64 657.512H997.732C997.336 657.512 997.084 657.26 997.084 656.864V646.388C997.084 643.436 996.148 642.212 994.06 642.212C991.972 642.212 990.496 643.796 990.496 646.892V656.864C990.496 657.26 990.244 657.512 989.848 657.512H983.944ZM871.456 700.512C871.06 700.512 870.844 700.26 870.844 699.864V671.856C870.844 671.46 871.06 671.208 871.456 671.208H890.104C890.5 671.208 890.752 671.46 890.752 671.856V677.22C890.752 677.58 890.5 677.832 890.104 677.832H878.296V683.448H888.196C888.592 683.448 888.844 683.7 888.844 684.096V689.496C888.844 689.856 888.592 690.108 888.196 690.108H878.296V699.864C878.296 700.26 878.044 700.512 877.648 700.512H871.456ZM894.155 700.512C893.759 700.512 893.507 700.26 893.507 699.864V679.92C893.507 679.56 893.759 679.308 894.155 679.308H899.159C899.555 679.308 899.843 679.524 899.843 679.92L899.951 682.08C901.391 679.956 903.659 679.02 906.179 679.02C906.719 679.02 907.259 679.056 907.691 679.2C908.051 679.308 908.267 679.56 908.267 679.92V685.392C908.267 685.788 907.979 685.968 907.547 685.896C906.971 685.824 906.323 685.716 905.495 685.716C903.371 685.716 900.707 687.048 900.707 690.18V699.864C900.707 700.26 900.455 700.512 900.059 700.512H894.155ZM921.528 700.908C914.472 700.908 909.9 696.408 909.9 689.892C909.9 683.412 914.472 678.912 921.528 678.912C928.584 678.912 933.156 683.412 933.156 689.892C933.156 696.408 928.584 700.908 921.528 700.908ZM917.172 689.892C917.172 692.664 918.936 694.608 921.528 694.608C924.12 694.608 925.884 692.664 925.884 689.892C925.884 687.12 924.12 685.212 921.528 685.212C918.936 685.212 917.172 687.12 917.172 689.892ZM937.327 700.512C936.931 700.512 936.679 700.26 936.679 699.864V679.92C936.679 679.56 936.931 679.308 937.327 679.308H942.331C942.727 679.308 943.015 679.524 943.015 679.92L943.087 681.792C944.635 679.884 946.975 678.912 949.783 678.912C954.823 678.912 957.667 681.828 957.667 686.688V699.864C957.667 700.26 957.415 700.512 957.019 700.512H951.115C950.719 700.512 950.467 700.26 950.467 699.864V689.388C950.467 686.436 949.531 685.212 947.443 685.212C945.355 685.212 943.879 686.796 943.879 689.892V699.864C943.879 700.26 943.627 700.512 943.231 700.512H937.327ZM970.809 700.908C965.445 700.908 963.105 697.596 963.105 691.512V685.464H960.585C960.189 685.464 959.937 685.212 959.937 684.816V680.028C959.937 679.668 960.189 679.38 960.585 679.38H963.105V674.412C963.105 674.016 963.357 673.764 963.753 673.764H969.657C970.053 673.764 970.305 674.016 970.305 674.412V679.38H974.517C974.913 679.38 975.165 679.668 975.165 680.028V684.816C975.165 685.212 974.913 685.464 974.517 685.464H970.305V692.196C970.305 693.996 970.773 694.86 971.889 694.86C972.357 694.86 972.681 694.644 973.041 694.068C973.185 693.924 973.293 693.816 973.473 693.816C973.581 693.816 973.689 693.852 973.833 693.924L977.865 695.652C978.117 695.76 978.261 695.94 978.261 696.192C978.261 696.3 978.189 696.48 978.117 696.624C976.605 699.684 973.617 700.908 970.809 700.908ZM1002.94 700.908C996.17 700.908 991.814 696.408 991.814 689.892C991.814 683.412 996.17 678.912 1002.94 678.912C1009.99 678.912 1013.81 683.916 1013.41 691.116C1013.38 691.512 1013.16 691.728 1012.73 691.728H999.086C999.626 693.816 1000.96 694.968 1002.97 694.968C1004.52 694.968 1005.71 694.5 1006.47 693.456C1006.72 693.168 1007.01 693.096 1007.33 693.168L1012.44 694.896C1012.69 695.004 1012.84 695.148 1012.84 695.364C1012.84 695.472 1012.8 695.58 1012.73 695.724C1010.79 699.36 1006.97 700.908 1002.94 700.908ZM1006.36 687.804C1005.96 685.716 1004.74 684.528 1002.83 684.528C1000.85 684.528 999.518 685.644 999.086 687.804H1006.36ZM1017.48 700.512C1017.09 700.512 1016.84 700.26 1016.84 699.864V679.92C1016.84 679.56 1017.09 679.308 1017.48 679.308H1022.49C1022.88 679.308 1023.17 679.524 1023.17 679.92L1023.24 681.792C1024.79 679.884 1027.13 678.912 1029.94 678.912C1034.98 678.912 1037.82 681.828 1037.82 686.688V699.864C1037.82 700.26 1037.57 700.512 1037.18 700.512H1031.27C1030.88 700.512 1030.62 700.26 1030.62 699.864V689.388C1030.62 686.436 1029.69 685.212 1027.6 685.212C1025.51 685.212 1024.04 686.796 1024.04 689.892V699.864C1024.04 700.26 1023.78 700.512 1023.39 700.512H1017.48ZM1051.04 700.908C1045.13 700.908 1041.17 696.48 1041.17 689.892C1041.17 683.304 1045.13 678.912 1051.04 678.912C1053.27 678.912 1055.18 679.632 1056.58 680.964V671.208C1056.58 670.812 1056.83 670.56 1057.23 670.56H1063.13C1063.53 670.56 1063.78 670.812 1063.78 671.208V699.864C1063.78 700.26 1063.53 700.512 1063.13 700.512H1058.13C1057.77 700.512 1057.48 700.26 1057.48 699.864L1057.41 697.992C1055.86 699.864 1053.74 700.908 1051.04 700.908ZM1048.45 689.892C1048.45 692.664 1050.21 694.608 1052.8 694.608C1055.39 694.608 1057.16 692.664 1057.16 689.892C1057.16 687.12 1055.39 685.212 1052.8 685.212C1050.21 685.212 1048.45 687.12 1048.45 689.892ZM1090.83 700.908C1084.06 700.908 1079.7 696.408 1079.7 689.892C1079.7 683.412 1084.06 678.912 1090.83 678.912C1097.88 678.912 1101.7 683.916 1101.3 691.116C1101.27 691.512 1101.05 691.728 1100.62 691.728H1086.98C1087.52 693.816 1088.85 694.968 1090.86 694.968C1092.41 694.968 1093.6 694.5 1094.36 693.456C1094.61 693.168 1094.9 693.096 1095.22 693.168L1100.33 694.896C1100.58 695.004 1100.73 695.148 1100.73 695.364C1100.73 695.472 1100.69 695.58 1100.62 695.724C1098.68 699.36 1094.86 700.908 1090.83 700.908ZM1094.25 687.804C1093.85 685.716 1092.63 684.528 1090.72 684.528C1088.74 684.528 1087.41 685.644 1086.98 687.804H1094.25ZM1105.37 700.512C1104.98 700.512 1104.73 700.26 1104.73 699.864V679.92C1104.73 679.56 1104.98 679.308 1105.37 679.308H1110.38C1110.77 679.308 1111.06 679.524 1111.06 679.92L1111.13 681.792C1112.68 679.884 1115.02 678.912 1117.83 678.912C1122.87 678.912 1125.71 681.828 1125.71 686.688V699.864C1125.71 700.26 1125.46 700.512 1125.07 700.512H1119.16C1118.77 700.512 1118.51 700.26 1118.51 699.864V689.388C1118.51 686.436 1117.58 685.212 1115.49 685.212C1113.4 685.212 1111.93 686.796 1111.93 689.892V699.864C1111.93 700.26 1111.67 700.512 1111.28 700.512H1105.37ZM1139.97 709.62C1135 709.62 1131.12 707.316 1129.64 703.428C1129.6 703.32 1129.57 703.212 1129.57 703.14C1129.57 702.924 1129.75 702.744 1130.04 702.672L1134.64 701.232C1134.72 701.196 1134.79 701.196 1134.86 701.196C1135.08 701.196 1135.29 701.304 1135.47 701.556C1136.3 702.744 1137.6 703.644 1139.79 703.644C1142.53 703.644 1144.47 702.276 1144.47 699.504V698.532C1143.07 699.828 1141.12 700.548 1138.93 700.548C1133.02 700.548 1129.06 696.084 1129.06 689.748C1129.06 683.34 1133.02 678.912 1138.93 678.912C1141.56 678.912 1143.75 679.956 1145.3 681.792L1145.37 679.92C1145.37 679.524 1145.66 679.308 1146.02 679.308H1151.02C1151.42 679.308 1151.67 679.56 1151.67 679.92V698.424C1151.67 706.236 1146.6 709.62 1139.97 709.62ZM1136.34 689.892C1136.34 692.664 1138.14 694.608 1140.69 694.608C1143.25 694.608 1145.05 692.664 1145.05 689.892C1145.05 687.12 1143.25 685.212 1140.69 685.212C1138.14 685.212 1136.34 687.12 1136.34 689.892ZM1159.86 676.5C1157.63 676.5 1155.9 675.024 1155.9 672.792C1155.9 670.56 1157.63 669.048 1159.86 669.048C1162.1 669.048 1163.82 670.56 1163.82 672.792C1163.82 675.024 1162.1 676.5 1159.86 676.5ZM1156.26 679.92C1156.26 679.56 1156.52 679.308 1156.91 679.308H1162.82C1163.21 679.308 1163.46 679.56 1163.46 679.92V699.864C1163.46 700.26 1163.21 700.512 1162.82 700.512H1156.91C1156.52 700.512 1156.26 700.26 1156.26 699.864V679.92ZM1168.73 700.512C1168.33 700.512 1168.08 700.26 1168.08 699.864V679.92C1168.08 679.56 1168.33 679.308 1168.73 679.308H1173.73C1174.13 679.308 1174.41 679.524 1174.41 679.92L1174.49 681.792C1176.03 679.884 1178.37 678.912 1181.18 678.912C1186.22 678.912 1189.07 681.828 1189.07 686.688V699.864C1189.07 700.26 1188.81 700.512 1188.42 700.512H1182.51C1182.12 700.512 1181.87 700.26 1181.87 699.864V689.388C1181.87 686.436 1180.93 685.212 1178.84 685.212C1176.75 685.212 1175.28 686.796 1175.28 689.892V699.864C1175.28 700.26 1175.03 700.512 1174.63 700.512H1168.73ZM1203.54 700.908C1196.77 700.908 1192.42 696.408 1192.42 689.892C1192.42 683.412 1196.77 678.912 1203.54 678.912C1210.6 678.912 1214.41 683.916 1214.02 691.116C1213.98 691.512 1213.76 691.728 1213.33 691.728H1199.69C1200.23 693.816 1201.56 694.968 1203.58 694.968C1205.12 694.968 1206.31 694.5 1207.07 693.456C1207.32 693.168 1207.61 693.096 1207.93 693.168L1213.04 694.896C1213.3 695.004 1213.44 695.148 1213.44 695.364C1213.44 695.472 1213.4 695.58 1213.33 695.724C1211.39 699.36 1207.57 700.908 1203.54 700.908ZM1206.96 687.804C1206.56 685.716 1205.34 684.528 1203.43 684.528C1201.45 684.528 1200.12 685.644 1199.69 687.804H1206.96ZM1227.48 700.908C1220.71 700.908 1216.36 696.408 1216.36 689.892C1216.36 683.412 1220.71 678.912 1227.48 678.912C1234.54 678.912 1238.35 683.916 1237.96 691.116C1237.92 691.512 1237.7 691.728 1237.27 691.728H1223.63C1224.17 693.816 1225.5 694.968 1227.52 694.968C1229.06 694.968 1230.25 694.5 1231.01 693.456C1231.26 693.168 1231.55 693.096 1231.87 693.168L1236.98 694.896C1237.24 695.004 1237.38 695.148 1237.38 695.364C1237.38 695.472 1237.34 695.58 1237.27 695.724C1235.33 699.36 1231.51 700.908 1227.48 700.908ZM1230.9 687.804C1230.5 685.716 1229.28 684.528 1227.37 684.528C1225.39 684.528 1224.06 685.644 1223.63 687.804H1230.9ZM1242.03 700.512C1241.63 700.512 1241.38 700.26 1241.38 699.864V679.92C1241.38 679.56 1241.63 679.308 1242.03 679.308H1247.03C1247.43 679.308 1247.71 679.524 1247.71 679.92L1247.82 682.08C1249.26 679.956 1251.53 679.02 1254.05 679.02C1254.59 679.02 1255.13 679.056 1255.56 679.2C1255.92 679.308 1256.14 679.56 1256.14 679.92V685.392C1256.14 685.788 1255.85 685.968 1255.42 685.896C1254.84 685.824 1254.19 685.716 1253.37 685.716C1251.24 685.716 1248.58 687.048 1248.58 690.18V699.864C1248.58 700.26 1248.33 700.512 1247.93 700.512H1242.03Z" fill="#0022FF"/>
<path d="M187.208 641.392C181.28 641.392 177.32 637.312 177.32 631.24C177.32 625.168 181.568 621.088 187.232 621.088C191.48 621.088 194.456 623.08 195.824 626.56C195.848 626.632 195.872 626.704 195.872 626.752C195.872 626.92 195.752 627.064 195.56 627.088L191.48 628.168C191.432 628.192 191.384 628.216 191.336 628.216C191.192 628.216 191.048 628.12 190.952 627.976C190.16 626.608 188.912 625.912 187.232 625.912C184.376 625.912 182.456 628 182.456 631.24C182.456 634.504 184.4 636.568 187.232 636.568C189.176 636.568 190.712 635.776 191.432 633.784C191.552 633.52 191.696 633.424 191.936 633.496L195.992 634.576C196.256 634.648 196.352 634.816 196.304 635.008C195.152 638.752 191.888 641.392 187.208 641.392ZM208.401 641.392C202.593 641.392 198.297 637.288 198.297 631.24C198.297 625.192 202.593 621.088 208.401 621.088C214.209 621.088 218.481 625.192 218.481 631.24C218.481 637.288 214.209 641.392 208.401 641.392ZM203.433 631.24C203.433 634.384 205.449 636.568 208.401 636.568C211.353 636.568 213.345 634.384 213.345 631.24C213.345 628.096 211.353 625.912 208.401 625.912C205.449 625.912 203.433 628.096 203.433 631.24ZM222.156 641.008C221.892 641.008 221.748 640.84 221.748 640.576V621.904C221.748 621.64 221.892 621.472 222.156 621.472H226.284C226.548 621.472 226.716 621.64 226.716 621.904V636.304H235.284C235.524 636.304 235.692 636.448 235.692 636.688V640.576C235.692 640.84 235.524 641.008 235.284 641.008H222.156ZM246.838 641.392C241.03 641.392 236.734 637.288 236.734 631.24C236.734 625.192 241.03 621.088 246.838 621.088C252.646 621.088 256.918 625.192 256.918 631.24C256.918 637.288 252.646 641.392 246.838 641.392ZM241.87 631.24C241.87 634.384 243.886 636.568 246.838 636.568C249.79 636.568 251.782 634.384 251.782 631.24C251.782 628.096 249.79 625.912 246.838 625.912C243.886 625.912 241.87 628.096 241.87 631.24ZM260.593 641.008C260.329 641.008 260.185 640.84 260.185 640.576V621.904C260.185 621.64 260.329 621.472 260.593 621.472H267.121C272.785 621.472 275.329 623.896 275.329 628.504C275.329 631.048 274.465 633.016 272.641 634.216L275.881 640.504C275.929 640.576 275.953 640.648 275.953 640.72C275.953 640.888 275.785 641.008 275.569 641.008H271.009C270.769 641.008 270.601 640.912 270.529 640.696L268.057 635.488C267.769 635.536 267.433 635.536 267.121 635.536H265.081V640.576C265.081 640.84 264.913 641.008 264.649 641.008H260.593ZM267.049 631.384C269.089 631.384 270.265 630.568 270.265 628.504C270.265 626.44 269.089 625.624 267.049 625.624H265.081V631.384H267.049Z" fill="black"/>
<rect width="75" height="75" transform="translate(278 671)" fill="#0022FF"/>
<rect width="75" height="75" transform="translate(194 671)" fill="#1F2937"/>
<rect width="75" height="75" transform="translate(278 587)" fill="#B9C0C9"/>
<circle cx="1073" cy="75" r="9.5" fill="white" stroke="#0022FF"/>
<circle cx="1194" cy="149" r="9.5" fill="white" stroke="#0022FF"/>
<circle cx="1317" cy="43" r="9.5" fill="#0022FF" stroke="white"/>
<line x1="1184.73" y1="145.423" x2="1081.73" y2="80.4228" stroke="#B9C0C9"/>
<line x1="1203.66" y1="145.629" x2="1309.66" y2="49.6294" stroke="#B9C0C9"/>
<path fill-rule="evenodd" clip-rule="evenodd" d="M1348.29 1.22089C1347.12 1.05964 1346.1 1.77739 1345.73 2.80039C1345.36 3.83539 1344.76 5.63539 1344.33 7.69489C1344.75 7.88849 1345.15 8.09586 1345.55 8.31664C1349.38 10.4572 1352.54 13.6206 1354.68 17.4539C1354.9 17.8491 1355.12 18.2526 1355.31 18.6644C1356.97 18.3118 1358.6 17.8447 1360.2 17.2664C1361.22 16.8966 1361.94 15.8766 1361.78 14.7051C1360.84 7.88539 1355.12 2.16064 1348.29 1.22089ZM1353.21 19.4924C1353.06 19.1727 1352.89 18.8573 1352.72 18.5466C1350.78 15.08 1347.92 12.2191 1344.45 10.2824C1344.14 10.1073 1343.82 9.94177 1343.49 9.78589C1340.22 10.0034 1337.63 10.3596 1335.88 10.6551C1333.89 10.9926 1332.34 12.4626 1331.78 14.3556C1330.3 19.4024 1329.4 23.4794 1328.88 26.3024C1328.67 27.384 1328.49 28.47 1328.34 29.5596C1328.29 29.9083 1328.24 30.2576 1328.2 30.6074C1327.97 31.4249 1328.16 32.2229 1328.53 32.8799L1338.2 23.2049C1337.86 22.4865 1337.78 21.6699 1337.98 20.8994C1338.18 20.129 1338.65 19.4543 1339.3 18.9946C1339.95 18.5349 1340.74 18.3198 1341.54 18.3874C1342.33 18.4549 1343.07 18.8008 1343.64 19.3637C1344.2 19.9267 1344.55 20.6706 1344.61 21.4639C1344.68 22.2572 1344.47 23.0488 1344.01 23.6989C1343.55 24.3489 1342.87 24.8155 1342.1 25.0162C1341.33 25.2169 1340.51 25.1388 1339.8 24.7956L1330.12 34.4706C1330.78 34.8344 1331.57 35.0256 1332.39 34.7976L1332.58 34.7751C1332.78 34.7526 1333.06 34.7151 1333.44 34.6626C1334.19 34.5569 1335.29 34.3851 1336.7 34.1219C1339.52 33.5946 1343.6 32.6969 1348.64 31.2164C1350.54 30.6606 1352.01 29.1119 1352.34 27.1154C1352.64 25.3664 1352.99 22.7736 1353.21 19.4924Z" fill="black"/>
<path d="M167.2 432.2C163.467 432.2 160.533 430.867 158.4 428.2C156.4 425.667 155.4 421.733 155.4 416.4C155.4 409.067 156.067 400.333 157.4 390.2C158.733 380.067 160.533 369.333 162.8 358C165.067 346.667 167.533 335.533 170.2 324.6C173.4 312.067 176.533 300.667 179.6 290.4C182.8 280.133 186 271.933 189.2 265.8C192.533 259.533 195.867 256.4 199.2 256.4C202.267 256.4 204.933 257.533 207.2 259.8C209.6 261.933 210.8 265.133 210.8 269.4C210.8 272.467 210 276.867 208.4 282.6C206.8 288.2 204.8 295.2 202.4 303.6C206.933 296.133 211.6 288.8 216.4 281.6C221.333 274.4 226.333 267.867 231.4 262C236.467 256.133 241.4 251.467 246.2 248C251 244.533 255.533 242.8 259.8 242.8C264.867 242.8 269.333 244.267 273.2 247.2C277.2 250.133 280.333 254.133 282.6 259.2C284.867 264.267 286 270 286 276.4C286 288.267 283.867 299.8 279.6 311C275.333 322.067 269.4 332 261.8 340.8C254.333 349.6 245.6 356.6 235.6 361.8C225.6 366.867 214.8 369.4 203.2 369.4C199.867 369.4 196.8 369.067 194 368.4C191.333 367.867 188.867 367.2 186.6 366.4C185 374.933 183.467 383.667 182 392.6C180.667 401.667 179.267 411.2 177.8 421.2C176.2 428.533 172.667 432.2 167.2 432.2ZM261.8 266.4C258.867 266.4 255.133 268.4 250.6 272.4C246.2 276.4 241.4 281.667 236.2 288.2C231 294.6 225.733 301.6 220.4 309.2C215.2 316.667 210.2 324 205.4 331.2C200.733 338.4 196.733 344.667 193.4 350C203.533 348.933 212.467 346.267 220.2 342C227.933 337.6 234.533 332.267 240 326C245.467 319.733 249.867 313.133 253.2 306.2C256.667 299.133 259.2 292.267 260.8 285.6C262.4 278.933 263.2 273.133 263.2 268.2C263.2 267 262.733 266.4 261.8 266.4Z" fill="#0022FF"/>
<path d="M367.056 378.6C327.856 378.6 302.456 353.6 302.456 317.4C302.456 281.4 327.856 256.4 367.056 256.4C406.256 256.4 431.656 281.4 431.656 317.4C431.656 353.6 406.256 378.6 367.056 378.6ZM342.856 317.4C342.856 332.8 352.656 343.6 367.056 343.6C381.456 343.6 391.256 332.8 391.256 317.4C391.256 302 381.456 291.4 367.056 291.4C352.656 291.4 342.856 302 342.856 317.4ZM454.83 376.4C452.63 376.4 451.23 375 451.23 372.8V262C451.23 260 452.63 258.6 454.83 258.6H482.63C484.83 258.6 486.43 259.8 486.43 262L487.03 274C495.03 262.2 507.63 257 521.63 257C524.63 257 527.63 257.2 530.03 258C532.03 258.6 533.23 260 533.23 262V292.4C533.23 294.6 531.63 295.6 529.23 295.2C526.03 294.8 522.43 294.2 517.83 294.2C506.03 294.2 491.23 301.6 491.23 319V372.8C491.23 375 489.83 376.4 487.63 376.4H454.83ZM604.122 378.6C574.322 378.6 561.322 360.2 561.322 326.4V292.8H547.322C545.122 292.8 543.722 291.4 543.722 289.2V262.6C543.722 260.6 545.122 259 547.322 259H561.322V231.4C561.322 229.2 562.722 227.8 564.922 227.8H597.722C599.922 227.8 601.322 229.2 601.322 231.4V259H624.722C626.922 259 628.322 260.6 628.322 262.6V289.2C628.322 291.4 626.922 292.8 624.722 292.8H601.322V330.2C601.322 340.2 603.922 345 610.122 345C612.722 345 614.522 343.8 616.522 340.6C617.322 339.8 617.922 339.2 618.922 339.2C619.522 339.2 620.122 339.4 620.922 339.8L643.322 349.4C644.722 350 645.522 351 645.522 352.4C645.522 353 645.122 354 644.722 354.8C636.322 371.8 619.722 378.6 604.122 378.6ZM668.27 376.4C666.27 376.4 665.07 375 665.07 372.8V292.8H651.27C649.07 292.8 647.67 291.4 647.67 289.2V262.6C647.67 260.6 649.07 259 651.27 259H665.07V258.6C665.07 229 680.27 208 710.87 208C729.87 208 744.67 215.8 754.47 232.8C754.67 233.4 754.87 234 754.87 234.4C754.87 235.8 754.07 236.8 752.67 237.6L730.07 248C729.47 248.2 728.87 248.4 728.27 248.4C727.27 248.4 726.27 247.8 725.27 246.8C722.47 243 719.87 242 715.67 242C708.47 242 704.07 247.4 704.07 257.6L704.27 259H730.67C732.87 259 734.27 260.6 734.27 262.6V289.2C734.27 291.4 732.87 292.8 730.67 292.8H704.87V372.8C704.87 375 703.47 376.4 701.47 376.4H668.27ZM811.588 378.6C772.388 378.6 746.988 353.6 746.988 317.4C746.988 281.4 772.388 256.4 811.588 256.4C850.788 256.4 876.188 281.4 876.188 317.4C876.188 353.6 850.788 378.6 811.588 378.6ZM787.388 317.4C787.388 332.8 797.188 343.6 811.588 343.6C825.988 343.6 835.788 332.8 835.788 317.4C835.788 302 825.988 291.4 811.588 291.4C797.188 291.4 787.388 302 787.388 317.4ZM899.361 376.4C897.161 376.4 895.761 375 895.761 372.8V213.6C895.761 211.4 897.161 210 899.361 210H932.161C934.361 210 935.761 211.4 935.761 213.6V372.8C935.761 375 934.361 376.4 932.161 376.4H899.361ZM981.386 243C968.986 243 959.386 234.8 959.386 222.4C959.386 210 968.986 201.6 981.386 201.6C993.786 201.6 1003.39 210 1003.39 222.4C1003.39 234.8 993.786 243 981.386 243ZM961.386 262C961.386 260 962.786 258.6 964.986 258.6H997.786C999.986 258.6 1001.39 260 1001.39 262V372.8C1001.39 375 999.986 376.4 997.786 376.4H964.986C962.786 376.4 961.386 375 961.386 372.8V262ZM1085.61 378.6C1046.41 378.6 1021.01 353.6 1021.01 317.4C1021.01 281.4 1046.41 256.4 1085.61 256.4C1124.81 256.4 1150.21 281.4 1150.21 317.4C1150.21 353.6 1124.81 378.6 1085.61 378.6ZM1061.41 317.4C1061.41 332.8 1071.21 343.6 1085.61 343.6C1100.01 343.6 1109.81 332.8 1109.81 317.4C1109.81 302 1100.01 291.4 1085.61 291.4C1071.21 291.4 1061.41 302 1061.41 317.4Z" fill="black"/>
<rect x="6.75" y="33.75" width="279" height="78" stroke="#0022FF" stroke-width="1.5"/>
<path d="M20.184 101.672C19.968 101.888 19.752 102.032 19.464 102.032C19.248 102.032 19.032 101.96 18.816 101.744L12.552 96.128C12.336 95.912 12.192 95.624 12.192 95.408C12.192 95.192 12.264 94.904 12.552 94.688C18.888 89.072 38.256 72.368 44.952 65.888L17.736 66.68C17.088 66.68 16.728 66.32 16.728 65.672L16.656 58.4C16.656 57.752 17.016 57.392 17.664 57.392L59.28 57.104C59.928 57.104 60.288 57.464 60.288 58.112L60.432 63.8C60.432 64.376 60.288 64.736 59.856 65.096C55.32 68.696 49.344 73.664 44.088 78.056C44.592 77.984 45.024 77.984 45.456 77.984C49.488 77.984 53.232 80.288 54.024 86.192C54.744 91.88 56.832 93.32 62.16 93.32C65.04 93.32 68.352 92.744 72.096 91.664L72.456 91.592C72.96 91.592 73.248 91.952 73.176 92.6L72.096 100.448C72.024 101.024 71.592 101.384 70.872 101.528C67.92 102.176 64.824 102.464 61.944 102.464C53.448 102.464 46.248 100.52 45.168 90.584C44.664 86.048 42.432 84.536 39.984 84.536C38.4 84.536 36.744 85.184 35.52 86.12C30.336 91.088 23.712 97.928 20.184 101.672ZM26.304 41.624C26.376 40.976 26.808 40.688 27.456 40.832C35.736 42.272 50.064 43.712 59.28 43.856C59.928 43.856 60.288 44.288 60.144 44.936L58.992 51.776C58.92 52.424 58.56 52.712 57.912 52.712C48.264 52.64 34.44 51.2 26.016 49.616C25.44 49.472 25.152 49.04 25.224 48.392L26.304 41.624ZM87.3572 91.088C82.8932 84.392 81.7412 73.592 81.7412 61.064C81.7412 56.096 81.8852 50.84 82.1012 45.512C82.1732 44.792 82.5332 44.504 83.1812 44.576L91.6772 45.44C92.3252 45.512 92.6132 45.944 92.5412 46.592C91.8212 52.784 91.3892 58.976 91.3892 64.736C91.3892 74.456 92.6852 82.736 95.9972 86.624C96.7892 87.56 97.7252 88.064 98.8052 88.064C101.253 88.064 104.205 85.328 106.653 78.776C106.797 78.272 107.085 78.056 107.373 78.056C107.589 78.056 107.805 78.128 108.021 78.344L113.421 84.032C113.637 84.248 113.781 84.536 113.781 84.824C113.781 85.112 113.709 85.4 113.565 85.688C109.749 94.544 104.205 98.504 98.8772 98.504C94.4852 98.504 90.3092 95.912 87.3572 91.088ZM117.741 52.136C117.453 51.92 117.309 51.704 117.309 51.488C117.309 51.2 117.453 50.984 117.813 50.768L124.221 46.592C124.437 46.448 124.653 46.376 124.869 46.376C125.157 46.376 125.373 46.448 125.589 46.664C136.173 56.168 142.365 71.144 142.437 86.48C142.437 87.128 142.149 87.488 141.573 87.632L133.653 89.36H133.365C132.861 89.36 132.573 89.072 132.573 88.424C132.213 75.464 128.109 61.064 117.741 52.136ZM207.755 72.008C207.611 72.08 207.467 72.152 207.323 72.152C206.963 72.152 206.675 71.936 206.459 71.432C205.163 68.048 202.787 63.872 200.627 61.136C200.411 60.92 200.339 60.704 200.339 60.488C200.339 60.2 200.555 59.912 200.915 59.768L204.155 58.472C204.299 58.4 204.515 58.328 204.659 58.328C206.531 58.328 211.211 67.544 211.931 69.344C212.003 69.488 212.003 69.632 212.003 69.776C212.003 70.136 211.787 70.424 211.355 70.64L207.755 72.008ZM149.291 46.16C149.291 45.584 149.651 45.296 150.227 45.296C165.203 45.296 191.051 45.224 206.603 44.936C207.251 44.936 207.611 45.224 207.611 45.944V53.504C207.611 54.152 207.251 54.512 206.603 54.512C201.347 54.44 196.667 55.16 192.203 57.248C181.259 62.144 174.923 69.992 174.923 76.832C174.923 84.104 182.267 90.224 199.115 90.224C199.835 90.224 200.195 90.584 200.051 91.304L198.611 99.512C198.467 100.16 198.107 100.448 197.459 100.448C173.987 99.944 164.483 89.288 164.483 77.984C164.483 67.904 171.827 58.4 180.755 54.224C171.107 54.512 159.155 54.872 150.443 55.016C149.795 55.016 149.435 54.728 149.435 54.008L149.291 46.304V46.16ZM191.483 63.728C191.483 63.44 191.699 63.152 192.131 63.008L195.371 61.64C195.587 61.568 195.731 61.568 195.947 61.568C196.235 61.568 196.523 61.712 196.739 62C199.043 64.736 201.635 69.344 203.003 72.8C203.075 72.944 203.075 73.088 203.075 73.232C203.075 73.664 202.859 73.952 202.427 74.096L198.755 75.608C198.539 75.68 198.395 75.752 198.251 75.752C197.891 75.752 197.603 75.464 197.459 75.032C196.163 71.432 194.075 67.472 191.771 64.376C191.555 64.16 191.483 63.944 191.483 63.728ZM227.968 100.592C227.752 101.24 227.32 101.456 226.744 101.24L218.68 98.504C218.104 98.288 217.888 97.784 218.104 97.208C225.376 78.272 234.664 55.52 240.208 40.544C240.424 39.896 240.856 39.68 241.504 39.896L249.712 42.488C250.36 42.632 250.576 43.136 250.288 43.712C246.76 51.704 242.08 61.784 238.048 71.432C240.568 69.416 243.448 68.336 246.112 68.336C250.72 68.336 254.752 71.504 255.472 78.56C255.688 81.008 255.688 84.32 256.264 86.768C256.912 89.936 258.784 91.448 260.944 91.448C262.816 91.448 264.904 90.296 266.56 88.136C269.224 84.896 270.808 78.344 271.384 71.36C271.456 70.64 271.888 70.352 272.608 70.64L280.24 73.952C280.744 74.168 281.032 74.6 280.96 75.176C279.88 83.96 277.792 90.872 273.472 95.624C270.088 99.368 265.192 101.456 260.512 101.456C254.608 101.456 249.064 98.144 247.48 90.728C246.76 88.424 246.76 84.68 246.616 81.8C246.328 78.632 244.96 76.976 242.944 76.976C239.848 76.976 235.312 80.936 231.856 89.072C230.488 92.96 229.12 96.992 227.968 100.592Z" fill="black"/>
<rect x="0.75" y="27.75" width="10.5" height="10.5" fill="white" stroke="#0022FF" stroke-width="1.5"/>
<rect x="281.25" y="107.25" width="10.5" height="10.5" fill="white" stroke="#0022FF" stroke-width="1.5"/>
<rect x="0.75" y="107.25" width="10.5" height="10.5" fill="white" stroke="#0022FF" stroke-width="1.5"/>
<rect x="281.25" y="27.75" width="10.5" height="10.5" fill="white" stroke="#0022FF" stroke-width="1.5"/>
<path d="M241.5 125.25L280.875 146.625L259.5 148.875L248.244 168L241.5 125.25Z" fill="white" stroke="#0022FF" stroke-width="4.5" stroke-linejoin="round"/>
</svg>
